<svg fill="none" height="152" viewBox="0 0 448 152" width="448" xmlns="http://www.w3.org/2000/svg" xmlns:xlink="http://www.w3.org/1999/xlink"><clipPath id="a"><path d="m0 0h447.36v151.68h-447.36z"/></clipPath><mask id="b" height="152" maskUnits="userSpaceOnUse" width="448" x="0" y="0"><path d="m0 151.68h447.36v-151.68006104h-447.36z" fill="#fff"/></mask><g clip-path="url(#a)"><path d="m8.78668 94.3225h90.09332v-89.28799h-90.09332z" fill="#d3c3a7"/><g fill="#373535"><g mask="url(#b)"><path d="m19.231 140.15c-.396 1.117-.8147 1.862-1.2574 2.328-.5346.628-1.3493.768-2.4666.768-.8147 0-1.4894-.047-1.908-.234-.4667-.209-.5587-.652-.5587-1.792v-9.146c0-1.979.2093-2.119 2.0013-2.259v-.768h-6.72664v.768c1.81464.14 2.02534.28 2.02534 2.259v9.053c0 1.979-.2333 2.141-2.212 2.304v.745h11.0333c.2094-.652.6747-2.933.8614-3.84zm19.644.093c-.396.977-.8147 1.745-1.2574 2.235-.5346.605-1.3026.768-2.7226.768-.9547 0-1.7694-.024-2.188-.256-.4427-.256-.5587-.792-.5587-1.91v-4.142h1.792c2.0027 0 2.2347.093 2.5373 1.769h.792v-4.609h-.792c-.3026 1.606-.5346 1.746-2.5373 1.746h-1.792v-5.052c0-.744.0707-.79.8853-.79h1.3494c1.4426 0 2.072.162 2.444.605.372.441.652 1.117.8613 2.001l.7907-.116c-.092-1.35-.2094-2.98-.232-3.445h-10.7307v.768c1.7.14 1.9093.233 1.9093 2.281v9.055c0 1.955-.2093 2.117-2.2346 2.28v.745h11.6373c.2093-.698.6747-2.862.8147-3.793zm23.368 3.933v-.745c-1.4894-.185-1.792-.441-2.56-2.489-1.5134-4.004-2.9787-8.194-4.4694-12.244l-1.024.28-4.7706 12.033c-.792 2.001-1.0947 2.211-2.6067 2.42v.745h5.144v-.745c-1.7-.209-1.816-.488-1.42-1.745.2787-.931.6053-1.815.908-2.676h4.6307c.42 1.117.8146 2.21 1.0706 2.978.3267.978.1867 1.234-1.2093 1.443v.745zm-6.5627-6.308h-3.864c.652-1.745 1.28-3.561 1.9547-5.353h.0706zm14.3373-8.821v.768c1.6987.14 1.908.28 1.908 2.281v9.055c0 1.977-.2093 2.117-2.1173 2.28v.745h5.8187c2.8853 0 5.2826-.605 7.0053-1.932 1.7693-1.349 2.8867-3.398 2.8867-6.214 0-2.211-.8614-3.887-2.0254-4.982-1.4666-1.396-3.7-2.001-6.6333-2.001zm4.632 2.515c0-.77.0694-1.118.256-1.304.1854-.163.6974-.326 1.6054-.326 1.5826 0 2.84.419 3.84 1.28 1.3506 1.071 2.1186 2.932 2.1186 5.236 0 3.98-2.1186 6.774-5.6786 6.774-1.6294 0-2.1414-.535-2.1414-2.235zm30.3504 8.681c-.396.977-.814 1.745-1.257 2.235-.535.605-1.303.768-2.723.768-.954 0-1.769-.024-2.1877-.256-.4427-.256-.5587-.792-.5587-1.91v-4.142h1.7924c2.002 0 2.234.093 2.537 1.769h.792v-4.609h-.792c-.303 1.606-.535 1.746-2.537 1.746h-1.7924v-5.052c0-.744.0707-.79.884-.79h1.3504c1.443 0 2.072.162 2.444.605.372.441.652 1.117.862 2.001l.79-.116c-.093-1.35-.209-2.98-.232-3.445h-10.7304v.768c1.7.14 1.9094.233 1.9094 2.281v9.055c0 1.955-.2094 2.117-2.2347 2.28v.745h11.6377c.209-.698.674-2.862.814-3.793zm22.624 3.444c-.536-.163-.978-.441-1.513-1.047-.512-.512-1.001-1.21-1.839-2.49-.698-1.048-1.582-2.607-1.954-3.328 1.605-.676 2.932-1.816 2.932-3.842 0-1.442-.628-2.466-1.56-3.094-.931-.606-2.095-.839-4.003-.839h-6.261v.768c1.745.14 1.956.327 1.956 2.235v9.101c0 1.932-.258 2.117-2.05 2.28v.745h6.704v-.745c-1.792-.163-2.001-.372-2.001-2.28v-3.515h.535c.908 0 1.326.279 1.698.978.676 1.186 1.398 2.513 2.072 3.537.978 1.489 1.908 2.095 4.423 2.212.256 0 .535.023.721.023zm-9.589-6.912v-5.703c0-.536.045-.792.209-.93.163-.118.512-.234 1.118-.234 1.489 0 2.978.931 2.978 3.422 0 1.21-.349 2.141-1.164 2.816-.534.442-1.302.629-2.373.629zm25.905-4.189c-.186-1.467-.326-2.444-.42-3.306-.604-.186-1.792-.582-3.141-.582-3.189 0-5.121 1.978-5.121 4.4 0 2.373 1.909 3.606 3.98 4.677 1.746.908 2.864 1.769 2.864 3.259 0 1.56-.955 2.584-2.515 2.584-2.28 0-3.537-2.514-3.956-3.98l-.792.233c.163 1.303.465 3.257.675 3.816.28.14.698.303 1.326.489.63.21 1.42.35 2.306.35 3.304 0 5.492-2.026 5.492-4.61 0-2.42-1.862-3.63-4.074-4.748-1.977-.977-2.932-1.745-2.932-3.188 0-1.304.908-2.374 2.374-2.374 1.932 0 2.724 1.676 3.189 3.142zm24.811-3.539h-6.656v.768c1.768.163 1.932.28 1.932 2.259v3.537h-6.913v-3.537c0-1.979.186-2.119 1.909-2.259v-.768h-6.657v.768c1.838.14 2.048.28 2.048 2.259v9.1c0 1.954-.21 2.094-1.979 2.257v.745h6.657v-.745c-1.792-.163-1.978-.303-1.978-2.257v-4.446h6.913v4.446c0 1.954-.187 2.094-2.072 2.257v.745h6.796v-.745c-1.815-.163-2.001-.303-2.001-2.257v-9.1c0-1.979.162-2.096 2.001-2.259zm14.827 15.129v-.745c-1.792-.163-1.979-.325-1.979-2.28v-9.055c0-1.978.187-2.141 1.979-2.281v-.768h-6.68v.768c1.792.14 2.001.303 2.001 2.281v9.055c0 1.977-.209 2.117-2.001 2.28v.745zm8.332-15.129v.768c1.653.14 1.862.28 1.862 2.281v9.055c0 1.955-.209 2.117-2.001 2.28v.745h6.889v-.745c-2.025-.163-2.234-.303-2.234-2.257v-3.375l1.652.396c.256.023.629.023.978-.024 2.398-.303 4.678-1.723 4.678-4.817 0-1.514-.604-2.654-1.63-3.376-.93-.675-2.257-.931-4.026-.931zm4.516 1.956c0-.467.069-.723.233-.861.139-.118.512-.234 1.024-.234 1.583 0 3.119.931 3.119 3.515 0 3.072-1.863 3.748-2.956 3.748-.583 0-1.118-.117-1.42-.233zm52.044 8.937c-1.188 2.328-2.538 3.584-4.656 3.584-3.306 0-5.679-2.885-5.679-7.168 0-3.492 1.932-6.704 5.493-6.704 2.048 0 3.7.884 4.399 3.538l.815-.163c-.163-1.373-.326-2.42-.512-3.7-.628-.14-2.304-.629-4.19-.629-5.446 0-9.148 3.282-9.148 8.124 0 3.677 2.584 7.704 8.612 7.704 1.63 0 3.702-.466 4.33-.606.396-.792.977-2.56 1.304-3.677zm16.826-11.242c-5.142 0-8.029 3.934-8.029 7.984 0 4.469 3.259 7.844 7.751 7.844 4.352 0 7.937-3.072 7.937-8.078 0-4.63-3.515-7.75-7.659-7.75zm-.441.932c2.839 0 4.957 2.722 4.957 7.448 0 4.352-1.978 6.517-4.329 6.517-3.096 0-5.073-3.305-5.073-7.425 0-4.143 2.024-6.54 4.445-6.54zm32.027-.583h-5.61v.745c1.676.094 2.164.466 2.304 1.467.047.675.163 1.768.163 3.863v4.656h-.069l-9.194-10.731h-4.004v.745c1.048.094 1.536.279 2.002.862.442.534.465.861.465 2.444v4.957c0 2.072-.116 3.119-.185 3.887-.116 1.048-.675 1.397-1.979 1.489v.745h5.633v-.745c-1.676-.092-2.118-.465-2.234-1.559-.071-.698-.163-1.745-.163-3.817v-5.469h.045l9.776 11.824h.978v-9.288c0-2.095.093-3.188.186-3.887.116-1.047.628-1.373 1.886-1.443zm16.85 3.539c-.185-1.467-.325-2.444-.418-3.306-.606-.186-1.792-.582-3.142-.582-3.189 0-5.121 1.978-5.121 4.4 0 2.373 1.909 3.606 3.98 4.677 1.745.908 2.863 1.769 2.863 3.259 0 1.56-.954 2.584-2.514 2.584-2.281 0-3.537-2.514-3.957-3.98l-.791.233c.163 1.303.466 3.257.675 3.816.28.14.699.303 1.327.489.629.21 1.42.35 2.304.35 3.305 0 5.493-2.026 5.493-4.61 0-2.42-1.861-3.63-4.073-4.748-1.979-.977-2.932-1.745-2.932-3.188 0-1.304.908-2.374 2.373-2.374 1.932 0 2.724 1.676 3.189 3.142zm24.3-3.539h-5.725v.768c1.605.093 2.117.489 2.257 1.327.094.721.21 1.653.21 3.468v2.212c0 3.886-1.164 6.237-4.143 6.237-2.653 0-3.98-2.072-3.98-5.656v-5.144c0-2.164.209-2.304 1.955-2.444v-.768h-6.656v.768c1.768.163 1.977.28 1.977 2.444v5.609c0 2.724.652 4.446 1.979 5.494 1.094.837 2.513 1.164 3.98 1.164 1.606 0 3.189-.559 4.26-1.676 1.326-1.396 1.722-3.375 1.722-5.935v-2.305c0-1.839.07-2.747.163-3.422.116-.884.675-1.302 2.001-1.373zm18.411 11.103c-.396 1.117-.815 1.862-1.257 2.328-.535.628-1.35.768-2.467.768-.815 0-1.489-.047-1.909-.234-.466-.209-.558-.652-.558-1.792v-9.146c0-1.979.21-2.119 2.002-2.259v-.768h-6.727v.768c1.815.14 2.025.28 2.025 2.259v9.053c0 1.979-.233 2.141-2.212 2.304v.745h11.034c.209-.652.674-2.933.861-3.84zm19.993-7.308c-.116-1.444-.232-3.376-.232-4.376h-.536c-.396.441-.674.581-1.28.581h-9.31c-.651 0-.954-.047-1.303-.581h-.536c-.047 1.21-.185 2.862-.279 4.445h.791c.28-1.117.536-1.863.885-2.257.326-.443.768-.652 2.676-.652h1.048v11.149c0 1.932-.233 2.117-2.234 2.28v.745h7.261v-.745c-2.117-.163-2.327-.348-2.327-2.28v-11.149h1.256c1.514 0 2.026.14 2.444.605.35.396.63 1.117.908 2.281zm14.547 11.334v-.745c-1.792-.163-1.977-.325-1.977-2.28v-9.055c0-1.978.185-2.141 1.977-2.281v-.768h-6.68v.768c1.792.14 2.003.303 2.003 2.281v9.055c0 1.977-.211 2.117-2.003 2.28v.745zm24.113-15.129h-5.609v.745c1.676.094 2.165.466 2.304 1.467.047.675.164 1.768.164 3.863v4.656h-.071l-9.193-10.731h-4.004v.745c1.048.094 1.537.279 2.003.862.441.534.465.861.465 2.444v4.957c0 2.072-.116 3.119-.187 3.887-.116 1.048-.674 1.397-1.978 1.489v.745h5.633v-.745c-1.676-.092-2.119-.465-2.235-1.559-.069-.698-.162-1.745-.162-3.817v-5.469h.046l9.775 11.824h.979v-9.288c0-2.095.092-3.188.185-3.887.117-1.047.629-1.373 1.885-1.443zm22.904 7.984h-6.586v.744c2.373.211 2.513.373 2.513 2.003v2.141c0 .791-.233 1.14-.605 1.373-.396.21-.978.326-1.583.326-4.051 0-5.865-3.771-5.865-7.216 0-4.212 2.49-6.772 5.562-6.772 2.188 0 3.934.977 4.516 3.653l.791-.139c-.187-1.746-.303-2.98-.372-3.794-.815-.163-2.607-.652-4.516-.652-4.771 0-9.1 2.724-9.1 8.077 0 4.632 3.444 7.751 8.751 7.751 1.862 0 3.864-.512 5.284-.862-.14-.605-.163-1.35-.163-2.188v-1.908c0-1.466.14-1.582 1.373-1.793z"/><path d="m194.723 13.9454h-30.206v3.24c9.027.8106 9.954 1.3893 9.954 10.9946v18.748h-39.464v-18.748c0-9.6053.926-10.184 9.721-10.9946v-3.24h-29.973v3.24c9.489.8106 10.416 1.2733 10.416 10.9946v46.7534c0 9.7213-.927 10.3-10.184 10.9946v3.24h30.436v-3.24c-9.49-.6946-10.416-1.3893-10.416-10.9946v-23.1454h39.464v23.1454c0 9.7213-1.042 10.3-10.879 10.9946v3.24h31.015v-3.24c-9.374-.6946-10.3-1.2733-10.3-10.9946v-46.7534c0-9.6053.926-10.184 10.416-10.9946zm45.249 62.956c-4.167 3.9346-8.564 5.7866-13.193 5.7866-8.102 0-17.128-6.4813-17.243-22.22 13.771-.4626 28.237-1.62 30.204-1.968 2.084-.4626 2.663-1.388 2.663-3.7026 0-9.0267-7.755-17.5907-17.36-17.5907-6.018 0-12.267 3.124-17.012 8.448-4.744 5.208-7.638 12.2667-7.638 20.252 0 13.0773 8.332 24.6507 22.567 24.6507 3.588 0 11.572-2.084 18.864-11.2254zm-17.707-35.4134c6.366 0 10.3 5.556 10.184 11.5734 0 1.62-.694 2.3146-2.777 2.3146-6.712.2307-13.077.3467-19.557.3467 1.736-9.3733 6.828-14.2347 12.15-14.2347zm60.062 10.0694c-.347-2.8934-1.62-9.7214-2.547-12.384-2.429-.9254-5.555-1.9667-10.299-1.9667-10.648 0-17.59 6.828-17.59 14.9293 0 8.9107 7.521 12.7294 14.465 15.9694 5.787 2.6626 9.143 5.44 9.143 10.532 0 4.86-3.935 8.1-8.216 8.1-6.944 0-12.152-6.712-14.235-14.3494l-3.009.5787c0 4.1653 1.041 12.036 1.852 13.656 2.082 1.736 7.406 3.9347 13.308 3.9347 9.258 0 19.096-5.44 19.096-15.9707 0-7.9853-5.903-12.152-14.583-15.7387-5.208-2.1986-9.836-4.8613-9.836-10.0693 0-4.5133 3.124-7.984 7.521-7.984 5.671 0 9.722 4.628 11.92 11.456zm21.061-24.4187c3.356 0 5.901-2.7773 5.901-5.9027 0-3.472-2.545-6.0173-5.785-6.0173-3.125 0-5.903 2.5453-5.903 6.0173 0 3.1254 2.778 5.9027 5.787 5.9027zm13.54 62.0293v-3.0093c-7.407-.6933-8.217-1.388-8.217-9.2573v-39.9267c-5.092 2.084-10.531 3.588-16.434 4.5133v2.7774c6.944 1.1573 7.293 1.6213 7.293 8.796v23.84c0 7.8693-.811 8.564-8.102 9.2573v3.0093zm31.476-51.9613c-10.531 0-25.344 8.68-25.344 27.7747 0 12.8453 9.489 25.576 25.344 25.576 11.457 0 25.113-8.912 25.113-27.544 0-14.3494-10.762-25.8067-25.113-25.8067zm-1.156 3.8187c10.068 0 15.507 10.9946 15.507 24.5346 0 15.8547-5.901 21.1774-13.078 21.1774-9.489 0-15.854-10.8774-15.854-25.46 0-13.076 6.249-20.252 13.425-20.252zm89.688 48.1426v-3.0093c-6.712-.6933-7.29-1.156-7.29-9.0267v-22.3346c0-11.2254-5.787-17.5907-14.93-17.5907-3.356 0-6.364 1.388-9.605 3.472-2.892 1.9667-5.439 3.7027-7.754 5.4387v-9.2574c-5.091 2.3134-10.53 3.7027-16.085 4.744v2.6614c6.248 1.1573 6.943 1.5053 6.943 8.912v23.9546c0 7.6387-.579 8.2174-8.448 9.0267v3.0093h25.113v-3.0093c-6.828-.6933-7.523-1.156-7.523-9.0267v-27.196c3.472-3.008 7.986-5.9013 12.615-5.9013 7.753 0 10.531 5.208 10.531 13.1933v19.3254c0 7.9853-.81 8.912-7.638 9.6053v3.0093z"/></g><path d="m6.12 115.68h433.08v-11.889h-433.08z"/></g></g></svg>